<?xml version="1.0" encoding="utf-8"?>
<svg version="1.1" baseProfile="full"  width="1320" height="1320" viewBox="0 0 1320 1320"
		 xmlns="http://www.w3.org/2000/svg" xmlns:xlink="http://www.w3.org/1999/xlink" xmlns:ev="http://www.w3.org/2001/xml-events">
<desc></desc>
<rect width="1320" height="1320" fill="#ffffff" cx="0" cy="0" />
<defs>
<rect id="p" width="40" height="40" />
</defs>
<g fill="#000000">
<use x="80" y="80" xlink:href="#p" />
<use x="80" y="120" xlink:href="#p" />
<use x="80" y="160" xlink:href="#p" />
<use x="80" y="200" xlink:href="#p" />
<use x="80" y="240" xlink:href="#p" />
<use x="80" y="280" xlink:href="#p" />
<use x="80" y="320" xlink:href="#p" />
<use x="80" y="400" xlink:href="#p" />
<use x="80" y="480" xlink:href="#p" />
<use x="80" y="560" xlink:href="#p" />
<use x="80" y="680" xlink:href="#p" />
<use x="80" y="760" xlink:href="#p" />
<use x="80" y="840" xlink:href="#p" />
<use x="80" y="880" xlink:href="#p" />
<use x="80" y="960" xlink:href="#p" />
<use x="80" y="1000" xlink:href="#p" />
<use x="80" y="1040" xlink:href="#p" />
<use x="80" y="1080" xlink:href="#p" />
<use x="80" y="1120" xlink:href="#p" />
<use x="80" y="1160" xlink:href="#p" />
<use x="80" y="1200" xlink:href="#p" />
<use x="120" y="80" xlink:href="#p" />
<use x="120" y="320" xlink:href="#p" />
<use x="120" y="400" xlink:href="#p" />
<use x="120" y="440" xlink:href="#p" />
<use x="120" y="480" xlink:href="#p" />
<use x="120" y="520" xlink:href="#p" />
<use x="120" y="640" xlink:href="#p" />
<use x="120" y="720" xlink:href="#p" />
<use x="120" y="760" xlink:href="#p" />
<use x="120" y="800" xlink:href="#p" />
<use x="120" y="840" xlink:href="#p" />
<use x="120" y="960" xlink:href="#p" />
<use x="120" y="1200" xlink:href="#p" />
<use x="160" y="80" xlink:href="#p" />
<use x="160" y="160" xlink:href="#p" />
<use x="160" y="200" xlink:href="#p" />
<use x="160" y="240" xlink:href="#p" />
<use x="160" y="320" xlink:href="#p" />
<use x="160" y="400" xlink:href="#p" />
<use x="160" y="440" xlink:href="#p" />
<use x="160" y="480" xlink:href="#p" />
<use x="160" y="520" xlink:href="#p" />
<use x="160" y="560" xlink:href="#p" />
<use x="160" y="720" xlink:href="#p" />
<use x="160" y="760" xlink:href="#p" />
<use x="160" y="880" xlink:href="#p" />
<use x="160" y="960" xlink:href="#p" />
<use x="160" y="1040" xlink:href="#p" />
<use x="160" y="1080" xlink:href="#p" />
<use x="160" y="1120" xlink:href="#p" />
<use x="160" y="1200" xlink:href="#p" />
<use x="200" y="80" xlink:href="#p" />
<use x="200" y="160" xlink:href="#p" />
<use x="200" y="200" xlink:href="#p" />
<use x="200" y="240" xlink:href="#p" />
<use x="200" y="320" xlink:href="#p" />
<use x="200" y="400" xlink:href="#p" />
<use x="200" y="440" xlink:href="#p" />
<use x="200" y="560" xlink:href="#p" />
<use x="200" y="640" xlink:href="#p" />
<use x="200" y="680" xlink:href="#p" />
<use x="200" y="720" xlink:href="#p" />
<use x="200" y="760" xlink:href="#p" />
<use x="200" y="840" xlink:href="#p" />
<use x="200" y="960" xlink:href="#p" />
<use x="200" y="1040" xlink:href="#p" />
<use x="200" y="1080" xlink:href="#p" />
<use x="200" y="1120" xlink:href="#p" />
<use x="200" y="1200" xlink:href="#p" />
<use x="240" y="80" xlink:href="#p" />
<use x="240" y="160" xlink:href="#p" />
<use x="240" y="200" xlink:href="#p" />
<use x="240" y="240" xlink:href="#p" />
<use x="240" y="320" xlink:href="#p" />
<use x="240" y="480" xlink:href="#p" />
<use x="240" y="560" xlink:href="#p" />
<use x="240" y="600" xlink:href="#p" />
<use x="240" y="720" xlink:href="#p" />
<use x="240" y="840" xlink:href="#p" />
<use x="240" y="960" xlink:href="#p" />
<use x="240" y="1040" xlink:href="#p" />
<use x="240" y="1080" xlink:href="#p" />
<use x="240" y="1120" xlink:href="#p" />
<use x="240" y="1200" xlink:href="#p" />
<use x="280" y="80" xlink:href="#p" />
<use x="280" y="320" xlink:href="#p" />
<use x="280" y="440" xlink:href="#p" />
<use x="280" y="480" xlink:href="#p" />
<use x="280" y="520" xlink:href="#p" />
<use x="280" y="600" xlink:href="#p" />
<use x="280" y="640" xlink:href="#p" />
<use x="280" y="680" xlink:href="#p" />
<use x="280" y="720" xlink:href="#p" />
<use x="280" y="800" xlink:href="#p" />
<use x="280" y="840" xlink:href="#p" />
<use x="280" y="880" xlink:href="#p" />
<use x="280" y="960" xlink:href="#p" />
<use x="280" y="1200" xlink:href="#p" />
<use x="320" y="80" xlink:href="#p" />
<use x="320" y="120" xlink:href="#p" />
<use x="320" y="160" xlink:href="#p" />
<use x="320" y="200" xlink:href="#p" />
<use x="320" y="240" xlink:href="#p" />
<use x="320" y="280" xlink:href="#p" />
<use x="320" y="320" xlink:href="#p" />
<use x="320" y="400" xlink:href="#p" />
<use x="320" y="480" xlink:href="#p" />
<use x="320" y="560" xlink:href="#p" />
<use x="320" y="640" xlink:href="#p" />
<use x="320" y="720" xlink:href="#p" />
<use x="320" y="800" xlink:href="#p" />
<use x="320" y="880" xlink:href="#p" />
<use x="320" y="960" xlink:href="#p" />
<use x="320" y="1000" xlink:href="#p" />
<use x="320" y="1040" xlink:href="#p" />
<use x="320" y="1080" xlink:href="#p" />
<use x="320" y="1120" xlink:href="#p" />
<use x="320" y="1160" xlink:href="#p" />
<use x="320" y="1200" xlink:href="#p" />
<use x="360" y="440" xlink:href="#p" />
<use x="360" y="520" xlink:href="#p" />
<use x="360" y="600" xlink:href="#p" />
<use x="360" y="640" xlink:href="#p" />
<use x="360" y="680" xlink:href="#p" />
<use x="360" y="880" xlink:href="#p" />
<use x="400" y="80" xlink:href="#p" />
<use x="400" y="160" xlink:href="#p" />
<use x="400" y="200" xlink:href="#p" />
<use x="400" y="240" xlink:href="#p" />
<use x="400" y="320" xlink:href="#p" />
<use x="400" y="400" xlink:href="#p" />
<use x="400" y="440" xlink:href="#p" />
<use x="400" y="520" xlink:href="#p" />
<use x="400" y="600" xlink:href="#p" />
<use x="400" y="680" xlink:href="#p" />
<use x="400" y="720" xlink:href="#p" />
<use x="400" y="760" xlink:href="#p" />
<use x="400" y="840" xlink:href="#p" />
<use x="400" y="920" xlink:href="#p" />
<use x="400" y="1080" xlink:href="#p" />
<use x="400" y="1120" xlink:href="#p" />
<use x="400" y="1160" xlink:href="#p" />
<use x="400" y="1200" xlink:href="#p" />
<use x="440" y="120" xlink:href="#p" />
<use x="440" y="160" xlink:href="#p" />
<use x="440" y="200" xlink:href="#p" />
<use x="440" y="480" xlink:href="#p" />
<use x="440" y="520" xlink:href="#p" />
<use x="440" y="560" xlink:href="#p" />
<use x="440" y="680" xlink:href="#p" />
<use x="440" y="880" xlink:href="#p" />
<use x="440" y="920" xlink:href="#p" />
<use x="440" y="960" xlink:href="#p" />
<use x="440" y="1000" xlink:href="#p" />
<use x="440" y="1040" xlink:href="#p" />
<use x="440" y="1080" xlink:href="#p" />
<use x="440" y="1160" xlink:href="#p" />
<use x="440" y="1200" xlink:href="#p" />
<use x="480" y="80" xlink:href="#p" />
<use x="480" y="120" xlink:href="#p" />
<use x="480" y="160" xlink:href="#p" />
<use x="480" y="200" xlink:href="#p" />
<use x="480" y="280" xlink:href="#p" />
<use x="480" y="320" xlink:href="#p" />
<use x="480" y="360" xlink:href="#p" />
<use x="480" y="400" xlink:href="#p" />
<use x="480" y="440" xlink:href="#p" />
<use x="480" y="480" xlink:href="#p" />
<use x="480" y="520" xlink:href="#p" />
<use x="480" y="560" xlink:href="#p" />
<use x="480" y="640" xlink:href="#p" />
<use x="480" y="680" xlink:href="#p" />
<use x="480" y="760" xlink:href="#p" />
<use x="480" y="880" xlink:href="#p" />
<use x="480" y="960" xlink:href="#p" />
<use x="480" y="1000" xlink:href="#p" />
<use x="480" y="1040" xlink:href="#p" />
<use x="480" y="1080" xlink:href="#p" />
<use x="520" y="120" xlink:href="#p" />
<use x="520" y="240" xlink:href="#p" />
<use x="520" y="280" xlink:href="#p" />
<use x="520" y="400" xlink:href="#p" />
<use x="520" y="480" xlink:href="#p" />
<use x="520" y="520" xlink:href="#p" />
<use x="520" y="560" xlink:href="#p" />
<use x="520" y="680" xlink:href="#p" />
<use x="520" y="760" xlink:href="#p" />
<use x="520" y="840" xlink:href="#p" />
<use x="520" y="880" xlink:href="#p" />
<use x="520" y="920" xlink:href="#p" />
<use x="520" y="960" xlink:href="#p" />
<use x="520" y="1200" xlink:href="#p" />
<use x="560" y="80" xlink:href="#p" />
<use x="560" y="120" xlink:href="#p" />
<use x="560" y="200" xlink:href="#p" />
<use x="560" y="240" xlink:href="#p" />
<use x="560" y="320" xlink:href="#p" />
<use x="560" y="360" xlink:href="#p" />
<use x="560" y="440" xlink:href="#p" />
<use x="560" y="520" xlink:href="#p" />
<use x="560" y="560" xlink:href="#p" />
<use x="560" y="600" xlink:href="#p" />
<use x="560" y="640" xlink:href="#p" />
<use x="560" y="760" xlink:href="#p" />
<use x="560" y="1000" xlink:href="#p" />
<use x="560" y="1080" xlink:href="#p" />
<use x="560" y="1120" xlink:href="#p" />
<use x="560" y="1160" xlink:href="#p" />
<use x="600" y="160" xlink:href="#p" />
<use x="600" y="200" xlink:href="#p" />
<use x="600" y="520" xlink:href="#p" />
<use x="600" y="560" xlink:href="#p" />
<use x="600" y="720" xlink:href="#p" />
<use x="600" y="760" xlink:href="#p" />
<use x="600" y="920" xlink:href="#p" />
<use x="600" y="960" xlink:href="#p" />
<use x="600" y="1000" xlink:href="#p" />
<use x="600" y="1040" xlink:href="#p" />
<use x="600" y="1120" xlink:href="#p" />
<use x="600" y="1200" xlink:href="#p" />
<use x="640" y="80" xlink:href="#p" />
<use x="640" y="120" xlink:href="#p" />
<use x="640" y="200" xlink:href="#p" />
<use x="640" y="320" xlink:href="#p" />
<use x="640" y="360" xlink:href="#p" />
<use x="640" y="400" xlink:href="#p" />
<use x="640" y="520" xlink:href="#p" />
<use x="640" y="560" xlink:href="#p" />
<use x="640" y="680" xlink:href="#p" />
<use x="640" y="800" xlink:href="#p" />
<use x="640" y="880" xlink:href="#p" />
<use x="640" y="1040" xlink:href="#p" />
<use x="640" y="1120" xlink:href="#p" />
<use x="680" y="240" xlink:href="#p" />
<use x="680" y="400" xlink:href="#p" />
<use x="680" y="600" xlink:href="#p" />
<use x="680" y="680" xlink:href="#p" />
<use x="680" y="720" xlink:href="#p" />
<use x="680" y="760" xlink:href="#p" />
<use x="680" y="800" xlink:href="#p" />
<use x="680" y="1000" xlink:href="#p" />
<use x="680" y="1080" xlink:href="#p" />
<use x="680" y="1200" xlink:href="#p" />
<use x="720" y="80" xlink:href="#p" />
<use x="720" y="120" xlink:href="#p" />
<use x="720" y="320" xlink:href="#p" />
<use x="720" y="400" xlink:href="#p" />
<use x="720" y="440" xlink:href="#p" />
<use x="720" y="520" xlink:href="#p" />
<use x="720" y="560" xlink:href="#p" />
<use x="720" y="600" xlink:href="#p" />
<use x="720" y="920" xlink:href="#p" />
<use x="720" y="960" xlink:href="#p" />
<use x="720" y="1160" xlink:href="#p" />
<use x="760" y="80" xlink:href="#p" />
<use x="760" y="120" xlink:href="#p" />
<use x="760" y="200" xlink:href="#p" />
<use x="760" y="240" xlink:href="#p" />
<use x="760" y="360" xlink:href="#p" />
<use x="760" y="400" xlink:href="#p" />
<use x="760" y="440" xlink:href="#p" />
<use x="760" y="480" xlink:href="#p" />
<use x="760" y="560" xlink:href="#p" />
<use x="760" y="600" xlink:href="#p" />
<use x="760" y="800" xlink:href="#p" />
<use x="760" y="840" xlink:href="#p" />
<use x="760" y="880" xlink:href="#p" />
<use x="760" y="920" xlink:href="#p" />
<use x="760" y="1040" xlink:href="#p" />
<use x="800" y="80" xlink:href="#p" />
<use x="800" y="160" xlink:href="#p" />
<use x="800" y="240" xlink:href="#p" />
<use x="800" y="280" xlink:href="#p" />
<use x="800" y="320" xlink:href="#p" />
<use x="800" y="400" xlink:href="#p" />
<use x="800" y="440" xlink:href="#p" />
<use x="800" y="600" xlink:href="#p" />
<use x="800" y="640" xlink:href="#p" />
<use x="800" y="720" xlink:href="#p" />
<use x="800" y="800" xlink:href="#p" />
<use x="800" y="920" xlink:href="#p" />
<use x="800" y="960" xlink:href="#p" />
<use x="800" y="1200" xlink:href="#p" />
<use x="840" y="80" xlink:href="#p" />
<use x="840" y="240" xlink:href="#p" />
<use x="840" y="280" xlink:href="#p" />
<use x="840" y="360" xlink:href="#p" />
<use x="840" y="440" xlink:href="#p" />
<use x="840" y="520" xlink:href="#p" />
<use x="840" y="600" xlink:href="#p" />
<use x="840" y="640" xlink:href="#p" />
<use x="840" y="680" xlink:href="#p" />
<use x="840" y="880" xlink:href="#p" />
<use x="840" y="960" xlink:href="#p" />
<use x="840" y="1080" xlink:href="#p" />
<use x="840" y="1200" xlink:href="#p" />
<use x="880" y="80" xlink:href="#p" />
<use x="880" y="160" xlink:href="#p" />
<use x="880" y="320" xlink:href="#p" />
<use x="880" y="480" xlink:href="#p" />
<use x="880" y="520" xlink:href="#p" />
<use x="880" y="560" xlink:href="#p" />
<use x="880" y="760" xlink:href="#p" />
<use x="880" y="800" xlink:href="#p" />
<use x="880" y="880" xlink:href="#p" />
<use x="880" y="920" xlink:href="#p" />
<use x="880" y="960" xlink:href="#p" />
<use x="880" y="1000" xlink:href="#p" />
<use x="880" y="1040" xlink:href="#p" />
<use x="880" y="1160" xlink:href="#p" />
<use x="880" y="1200" xlink:href="#p" />
<use x="920" y="400" xlink:href="#p" />
<use x="920" y="520" xlink:href="#p" />
<use x="920" y="600" xlink:href="#p" />
<use x="920" y="640" xlink:href="#p" />
<use x="920" y="680" xlink:href="#p" />
<use x="920" y="720" xlink:href="#p" />
<use x="920" y="800" xlink:href="#p" />
<use x="920" y="840" xlink:href="#p" />
<use x="920" y="880" xlink:href="#p" />
<use x="920" y="1040" xlink:href="#p" />
<use x="920" y="1080" xlink:href="#p" />
<use x="920" y="1200" xlink:href="#p" />
<use x="960" y="80" xlink:href="#p" />
<use x="960" y="120" xlink:href="#p" />
<use x="960" y="160" xlink:href="#p" />
<use x="960" y="200" xlink:href="#p" />
<use x="960" y="240" xlink:href="#p" />
<use x="960" y="280" xlink:href="#p" />
<use x="960" y="320" xlink:href="#p" />
<use x="960" y="440" xlink:href="#p" />
<use x="960" y="600" xlink:href="#p" />
<use x="960" y="640" xlink:href="#p" />
<use x="960" y="880" xlink:href="#p" />
<use x="960" y="960" xlink:href="#p" />
<use x="960" y="1040" xlink:href="#p" />
<use x="1000" y="80" xlink:href="#p" />
<use x="1000" y="320" xlink:href="#p" />
<use x="1000" y="440" xlink:href="#p" />
<use x="1000" y="640" xlink:href="#p" />
<use x="1000" y="720" xlink:href="#p" />
<use x="1000" y="760" xlink:href="#p" />
<use x="1000" y="800" xlink:href="#p" />
<use x="1000" y="880" xlink:href="#p" />
<use x="1000" y="1040" xlink:href="#p" />
<use x="1000" y="1120" xlink:href="#p" />
<use x="1040" y="80" xlink:href="#p" />
<use x="1040" y="160" xlink:href="#p" />
<use x="1040" y="200" xlink:href="#p" />
<use x="1040" y="240" xlink:href="#p" />
<use x="1040" y="320" xlink:href="#p" />
<use x="1040" y="400" xlink:href="#p" />
<use x="1040" y="440" xlink:href="#p" />
<use x="1040" y="640" xlink:href="#p" />
<use x="1040" y="720" xlink:href="#p" />
<use x="1040" y="800" xlink:href="#p" />
<use x="1040" y="880" xlink:href="#p" />
<use x="1040" y="920" xlink:href="#p" />
<use x="1040" y="960" xlink:href="#p" />
<use x="1040" y="1000" xlink:href="#p" />
<use x="1040" y="1040" xlink:href="#p" />
<use x="1040" y="1080" xlink:href="#p" />
<use x="1040" y="1160" xlink:href="#p" />
<use x="1040" y="1200" xlink:href="#p" />
<use x="1080" y="80" xlink:href="#p" />
<use x="1080" y="160" xlink:href="#p" />
<use x="1080" y="200" xlink:href="#p" />
<use x="1080" y="240" xlink:href="#p" />
<use x="1080" y="320" xlink:href="#p" />
<use x="1080" y="400" xlink:href="#p" />
<use x="1080" y="560" xlink:href="#p" />
<use x="1080" y="720" xlink:href="#p" />
<use x="1080" y="760" xlink:href="#p" />
<use x="1080" y="880" xlink:href="#p" />
<use x="1080" y="920" xlink:href="#p" />
<use x="1080" y="960" xlink:href="#p" />
<use x="1080" y="1000" xlink:href="#p" />
<use x="1080" y="1080" xlink:href="#p" />
<use x="1080" y="1160" xlink:href="#p" />
<use x="1120" y="80" xlink:href="#p" />
<use x="1120" y="160" xlink:href="#p" />
<use x="1120" y="200" xlink:href="#p" />
<use x="1120" y="240" xlink:href="#p" />
<use x="1120" y="320" xlink:href="#p" />
<use x="1120" y="400" xlink:href="#p" />
<use x="1120" y="480" xlink:href="#p" />
<use x="1120" y="560" xlink:href="#p" />
<use x="1120" y="600" xlink:href="#p" />
<use x="1120" y="640" xlink:href="#p" />
<use x="1120" y="760" xlink:href="#p" />
<use x="1120" y="800" xlink:href="#p" />
<use x="1120" y="840" xlink:href="#p" />
<use x="1120" y="880" xlink:href="#p" />
<use x="1120" y="920" xlink:href="#p" />
<use x="1120" y="1040" xlink:href="#p" />
<use x="1120" y="1120" xlink:href="#p" />
<use x="1160" y="80" xlink:href="#p" />
<use x="1160" y="320" xlink:href="#p" />
<use x="1160" y="480" xlink:href="#p" />
<use x="1160" y="600" xlink:href="#p" />
<use x="1160" y="640" xlink:href="#p" />
<use x="1160" y="680" xlink:href="#p" />
<use x="1160" y="720" xlink:href="#p" />
<use x="1160" y="760" xlink:href="#p" />
<use x="1160" y="920" xlink:href="#p" />
<use x="1160" y="960" xlink:href="#p" />
<use x="1160" y="1040" xlink:href="#p" />
<use x="1160" y="1080" xlink:href="#p" />
<use x="1160" y="1160" xlink:href="#p" />
<use x="1160" y="1200" xlink:href="#p" />
<use x="1200" y="80" xlink:href="#p" />
<use x="1200" y="120" xlink:href="#p" />
<use x="1200" y="160" xlink:href="#p" />
<use x="1200" y="200" xlink:href="#p" />
<use x="1200" y="240" xlink:href="#p" />
<use x="1200" y="280" xlink:href="#p" />
<use x="1200" y="320" xlink:href="#p" />
<use x="1200" y="400" xlink:href="#p" />
<use x="1200" y="440" xlink:href="#p" />
<use x="1200" y="520" xlink:href="#p" />
<use x="1200" y="600" xlink:href="#p" />
<use x="1200" y="640" xlink:href="#p" />
<use x="1200" y="920" xlink:href="#p" />
<use x="1200" y="1000" xlink:href="#p" />
<use x="1200" y="1080" xlink:href="#p" />
<use x="1200" y="1120" xlink:href="#p" />
</g>

</svg>